<?xml version="1.0" encoding="UTF-8" standalone="no" ?>
<!DOCTYPE svg PUBLIC "-//W3C//DTD SVG 1.1//EN" "http://www.w3.org/Graphics/SVG/1.1/DTD/svg11.dtd">
<svg xmlns="http://www.w3.org/2000/svg" xmlns:xlink="http://www.w3.org/1999/xlink" version="1.1" width="1527.9181999999998" height="321.76511999999997" xml:space="preserve">
<desc>Created with Fabric.js 1.6.0-rc.1</desc>
<defs></defs>
  <g transform="translate(373.29 166.21) scale(4.92 5.66)">
   <text font-family="Cargo Bay" font-size="40" font-weight="bold" style="stroke: none; stroke-width: 1; stroke-dasharray: none; stroke-linecap: butt; stroke-linejoin: miter; stroke-miterlimit: 10; fill: #006699; fill-rule: nonzero; opacity: 1;" ><tspan x="-73.34" y="8.98" style="stroke: none; stroke-width: 0; stroke-dasharray: none; stroke-linecap: butt; stroke-linejoin: miter; stroke-miterlimit: 4; fill: #006699; fill-rule: ; opacity: 1;">T</tspan><tspan x="-48.83" y="8.98" style="stroke: none; stroke-width: 0; stroke-dasharray: none; stroke-linecap: butt; stroke-linejoin: miter; stroke-miterlimit: 4; fill: #006699; fill-rule: ; opacity: 1;">r</tspan><tspan x="-24.47" y="8.98" style="stroke: none; stroke-width: 0; stroke-dasharray: none; stroke-linecap: butt; stroke-linejoin: miter; stroke-miterlimit: 4; fill: #006699; fill-rule: ; opacity: 1;">a</tspan><tspan x="-0.04" y="8.98" style="stroke: none; stroke-width: 0; stroke-dasharray: none; stroke-linecap: butt; stroke-linejoin: miter; stroke-miterlimit: 4; fill: #006699; fill-rule: ; opacity: 1;">v</tspan><tspan x="24.39" y="8.98" style="stroke: none; stroke-width: 0; stroke-dasharray: none; stroke-linecap: butt; stroke-linejoin: miter; stroke-miterlimit: 4; fill: #006699; fill-rule: ; opacity: 1;">e</tspan><tspan x="48.98" y="8.98" style="stroke: none; stroke-width: 0; stroke-dasharray: none; stroke-linecap: butt; stroke-linejoin: miter; stroke-miterlimit: 4; fill: #006699; fill-rule: ; opacity: 1;">l</tspan></text>
 </g>
  <g transform="translate(1065.69 166.2) scale(4.81 5.53)">
   <text font-family="Cargo Bay" font-size="40" font-weight="bold" style="stroke: none; stroke-width: 1; stroke-dasharray: none; stroke-linecap: butt; stroke-linejoin: miter; stroke-miterlimit: 10; fill: #d63f11; fill-rule: nonzero; opacity: 1;" ><tspan x="-60.97" y="8.98" style="stroke: none; stroke-width: 0; stroke-dasharray: none; stroke-linecap: butt; stroke-linejoin: miter; stroke-miterlimit: 4; fill: #d63f11; fill-rule: ; opacity: 1;">L</tspan><tspan x="-36.61" y="8.98" style="stroke: none; stroke-width: 0; stroke-dasharray: none; stroke-linecap: butt; stroke-linejoin: miter; stroke-miterlimit: 4; fill: #d63f11; fill-rule: ; opacity: 1;">o</tspan><tspan x="-12.33" y="8.98" style="stroke: none; stroke-width: 0; stroke-dasharray: none; stroke-linecap: butt; stroke-linejoin: miter; stroke-miterlimit: 4; fill: #d63f11; fill-rule: ; opacity: 1;">g</tspan><tspan x="12.02" y="8.98" style="stroke: none; stroke-width: 0; stroke-dasharray: none; stroke-linecap: butt; stroke-linejoin: miter; stroke-miterlimit: 4; fill: #d63f11; fill-rule: ; opacity: 1;">e</tspan><tspan x="36.61" y="8.98" style="stroke: none; stroke-width: 0; stroke-dasharray: none; stroke-linecap: butt; stroke-linejoin: miter; stroke-miterlimit: 4; fill: #d63f11; fill-rule: ; opacity: 1;">r</tspan></text>
 </g>
<g style="stroke: none; stroke-width: 1; stroke-dasharray: none; stroke-linecap: butt; stroke-linejoin: miter; stroke-miterlimit: 10; fill: none; fill-rule: nonzero; opacity: 1;" transform="translate(1398.04 10) scale(1.17 1.17)" >
  <ellipse cx="50.73" cy="190.59900000000002" rx="50.73" ry="7.609" style="stroke: none; stroke-width: 1; stroke-dasharray: none; stroke-linecap: butt; stroke-linejoin: miter; stroke-miterlimit: 10; fill: #DBDBDB; fill-rule: nonzero; opacity: 1;" transform=" matrix(1 0 0 1 0 0) "/>
  <path d="M 25.23 186.565 h 10.037 v -6.342 H 25.23 V 186.565 z M 67.139 180.223 v 6.342 h 10.037 v -6.342 H 67.139 z" style="stroke: none; stroke-width: 1; stroke-dasharray: none; stroke-linecap: butt; stroke-linejoin: miter; stroke-miterlimit: 10; fill: #353535; fill-rule: nonzero; opacity: 1;" transform=" matrix(1 0 0 1 0 0) " stroke-linecap="round" />
  <path d="M 51.203 53.56 c -8.777 0 -15.895 5.046 -15.895 11.271 c 0 6.225 7.115 11.27 15.895 11.27 c 8.775 0 15.893 -5.045 15.893 -11.27 C 67.096 58.606 59.98 53.56 51.203 53.56 z M 51.203 72.604 c -6.055 0 -10.961 -3.48 -10.961 -7.773 c 0 -4.292 4.906 -7.772 10.961 -7.772 c 6.053 0 10.961 3.48 10.961 7.772 C 62.164 69.124 57.256 72.604 51.203 72.604 z" style="stroke: none; stroke-width: 1; stroke-dasharray: none; stroke-linecap: butt; stroke-linejoin: miter; stroke-miterlimit: 10; fill: #353535; fill-rule: nonzero; opacity: 1;" transform=" matrix(1 0 0 1 0 0) " stroke-linecap="round" />
  <rect x="30.02" y="18.96" rx="0" ry="0" width="5.08" height="37.48" style="stroke: none; stroke-width: 1; stroke-dasharray: none; stroke-linecap: butt; stroke-linejoin: miter; stroke-miterlimit: 10; fill: #353535; fill-rule: nonzero; opacity: 1;" transform=" matrix(1 0 0 1 0 0) "/>
  <rect x="67.3" y="18.96" rx="0" ry="0" width="5.08" height="37.48" style="stroke: none; stroke-width: 1; stroke-dasharray: none; stroke-linecap: butt; stroke-linejoin: miter; stroke-miterlimit: 10; fill: #353535; fill-rule: nonzero; opacity: 1;" transform=" matrix(1 0 0 1 0 0) "/>
  <path d="M 37.295 20.333 v -8.825 c 0 -2.096 1.715 -3.813 3.813 -3.813 h 20.191 c 2.098 0 3.814 1.716 3.814 3.813 v 8.825 h 9.137 c 0.025 -2.914 0.039 -8.574 0.039 -8.754 V 3.813 C 74.289 1.716 72.574 0 70.477 0 H 31.928 c -2.096 0 -3.811 1.715 -3.811 3.813 v 7.766 c 0 0.181 0.014 5.841 0.039 8.754 H 37.295 z" style="stroke: none; stroke-width: 1; stroke-dasharray: none; stroke-linecap: butt; stroke-linejoin: miter; stroke-miterlimit: 10; fill: #353535; fill-rule: nonzero; opacity: 1;" transform=" matrix(1 0 0 1 0 0) " stroke-linecap="round" />
  <path d="M 95.871 156.402 c 0 12.42 -10.164 22.584 -22.585 22.584 H 29.121 c -12.422 0 -22.586 -10.164 -22.586 -22.584 V 81.119 c 0 -12.422 10.164 -22.585 22.586 -22.585 h 44.164 c 12.422 0 22.585 10.163 22.585 22.585 V 156.402 z" style="stroke: none; stroke-width: 1; stroke-dasharray: none; stroke-linecap: butt; stroke-linejoin: miter; stroke-miterlimit: 10; fill: #353535; fill-rule: nonzero; opacity: 1;" transform=" matrix(1 0 0 1 0 0) " stroke-linecap="round" />
  <path d="M 92.176 154.09 c 0 10.682 -9.334 19.423 -20.746 19.423 H 30.861 c -11.41 0 -20.744 -8.741 -20.744 -19.423 V 89.345 c 0 -10.685 9.334 -19.424 20.744 -19.424 H 71.43 c 11.412 0 20.746 8.74 20.746 19.424 V 154.09 z" style="stroke: none; stroke-width: 1; stroke-dasharray: none; stroke-linecap: butt; stroke-linejoin: miter; stroke-miterlimit: 10; fill: #BF267A; fill-rule: nonzero; opacity: 1;" transform=" matrix(1 0 0 1 0 0) " stroke-linecap="round" />
  <rect x="29.21" y="113.5" rx="0" ry="0" width="42.56" height="2.96" style="stroke: none; stroke-width: 1; stroke-dasharray: none; stroke-linecap: butt; stroke-linejoin: miter; stroke-miterlimit: 10; fill: #FFFFFF; fill-rule: nonzero; opacity: 1;" transform=" matrix(1 0 0 1 0 0) "/>
  <ellipse cx="70.13399999999999" cy="123.765" rx="3.064" ry="5.085" style="stroke: none; stroke-width: 1; stroke-dasharray: none; stroke-linecap: butt; stroke-linejoin: miter; stroke-miterlimit: 10; fill: #FFFFFF; fill-rule: nonzero; opacity: 1;" transform=" matrix(1 0 0 1 0 0) "/>
  <rect x="69.5" y="115.64" rx="0" ry="0" width="1.27" height="4.4" style="stroke: none; stroke-width: 1; stroke-dasharray: none; stroke-linecap: butt; stroke-linejoin: miter; stroke-miterlimit: 10; fill: #FFFFFF; fill-rule: nonzero; opacity: 1;" transform=" matrix(1 0 0 1 0 0) "/>
</g>
</svg>